<svg width="32" height="32" viewBox="0 0 32 32" fill="none" xmlns="http://www.w3.org/2000/svg">
<path d="M14.5771 24.1805C14.7236 23.7506 14.7528 23.2859 14.639 22.846C14.5147 22.3663 14.264 21.9227 13.905 21.5654L9.84797 17.5257C9.47751 17.1553 8.87348 17.1553 8.50329 17.5257C8.13284 17.8962 8.13123 18.4911 8.50168 18.8616L11.2591 21.6166C11.5569 21.9142 11.3461 22.4231 10.9253 22.4231H10.9242C10.7997 22.4231 10.6802 22.3738 10.5916 22.2862L7.95899 19.6727C7.59952 19.3164 7.39755 18.8313 7.39755 18.325V13.5766C7.39755 13.0714 7.01638 12.6303 6.51226 12.5973C5.95965 12.5611 5.5 12.9988 5.5 13.5437V19.2379C5.5 19.6866 5.65108 20.1221 5.92858 20.4744L8.75964 24.704C9.06768 25.1641 9.23215 25.7055 9.23215 26.2594V27.8203H14.2123L14.2808 25.3822C14.2875 25.1419 14.3304 24.904 14.4081 24.6764L14.5771 24.1805Z" fill="#008CA9"/>
<path d="M17.423 24.1808C17.2765 23.7508 17.2473 23.2861 17.3612 22.8463C17.4855 22.3665 17.7362 21.9229 18.0951 21.5656L22.1525 17.5257C22.5229 17.1552 23.1269 17.1552 23.4971 17.5257C23.8676 17.8961 23.8692 18.4911 23.4987 18.8615L20.7408 21.6168C20.4429 21.9144 20.6538 22.4233 21.0746 22.4233H21.0756C21.2002 22.4233 21.3197 22.374 21.4083 22.2864L24.0409 19.6729C24.4004 19.3166 24.6023 18.8315 24.6023 18.3253V13.5771C24.6023 13.0719 24.9835 12.6307 25.4876 12.5978C26.0402 12.5616 26.4999 12.9993 26.4999 13.5442V19.2384C26.4999 19.6871 26.3488 20.1226 26.0713 20.4749L23.2405 24.7042C22.9325 25.1644 22.768 25.7057 22.768 26.2597V27.8205H17.7876L17.719 25.3824C17.7123 25.1421 17.6695 24.9043 17.5918 24.6766L17.423 24.1808Z" fill="#008CA9"/>
<path d="M20.9876 4.1792H10.8564C10.2232 4.1792 9.70996 4.69243 9.70996 5.32566V15.4568C9.70996 16.09 10.2232 16.6033 10.8564 16.6033H20.9876C21.6208 16.6033 22.134 16.09 22.134 15.4568V5.32566C22.134 4.69243 21.6208 4.1792 20.9876 4.1792ZM18.2106 8.93995C18.2106 9.01897 18.1463 9.08325 18.0673 9.08325H14.1037C14.0247 9.08325 13.9604 9.01897 13.9604 8.93995V7.59179C13.9604 7.51277 14.0247 7.44848 14.1037 7.44848H18.0673C18.1463 7.44848 18.2106 7.51277 18.2106 7.59179V8.93995Z" fill="#F1C34E"/>
</svg>
