<?xml version="1.0" encoding="UTF-8"?>
<svg xmlns="http://www.w3.org/2000/svg" xmlns:xlink="http://www.w3.org/1999/xlink" viewBox="0 0 48 48" width="48px" height="48px">
<g id="surface151658390">
<path style=" stroke:none;fill-rule:nonzero;fill:rgb(5.098039%,4.705882%,4.705882%);fill-opacity:0.98039;" d="M 6 16 C 2.898438 19.699219 0 23.601562 0 27.101562 C 0 29.101562 1.699219 32 5.898438 32 C 8.199219 32 10.398438 31.101562 12.199219 30.398438 C 15.199219 29.199219 47.898438 15.300781 47.898438 15.300781 C 48.199219 15.101562 48.199219 14.898438 47.800781 15 C 47.601562 15 12.199219 24.398438 12.199219 24.398438 C 11.5 24.601562 10.800781 24.699219 10.101562 24.699219 C 7 24.699219 5 23.199219 5 20 C 4.898438 18.699219 5.101562 17.800781 6 16 Z M 6 16 "/>
</g>
</svg>
