<svg width="32" height="32" viewBox="0 0 32 32" fill="none" xmlns="http://www.w3.org/2000/svg">
<path d="M5.5 6.94531C5.5 4.77069 7.26288 3.00781 9.4375 3.00781H22.5625C24.7371 3.00781 26.5 4.77069 26.5 6.94531V20.0703C26.5 22.2449 24.7371 24.0078 22.5625 24.0078H21.6627C20.0542 24.0078 18.6074 24.9862 18.0084 26.479L17 28.9922L15.1478 25.9148C14.4356 24.7315 13.1554 24.0078 11.7742 24.0078H9.4375C7.26288 24.0078 5.5 22.2449 5.5 20.0703V6.94531Z" fill="#008CA9"/>
<path d="M14.5 10.5049C14.4997 10.5849 14.4795 10.6633 14.4414 10.7321C14.4033 10.8009 14.3486 10.8576 14.2832 10.8962C14.2169 10.9353 14.1422 10.9553 14.0665 10.9542C13.9907 10.9532 13.9166 10.9311 13.8512 10.8902L11.5 9.72312L9.1264 10.957C9.06094 10.9927 8.98809 11.0101 8.91465 11.0076C8.84121 11.005 8.76957 10.9826 8.7064 10.9424C8.64378 10.903 8.59181 10.8469 8.55562 10.7795C8.51943 10.7121 8.50026 10.6357 8.5 10.558V3.00781H14.5V10.5049Z" fill="#F1C34E"/>
</svg>
