<svg width="32" height="32" viewBox="0 0 32 32" fill="none" xmlns="http://www.w3.org/2000/svg">
<path d="M3.35479 11.8944L11.1964 14.9384V27.3208L2.95268 24.1204C2.73484 24.0367 2.59521 23.83 2.59521 23.5954V12.4139C2.59521 12.2295 2.6846 12.062 2.83537 11.9559C2.98619 11.8498 3.18165 11.8274 3.35479 11.8944Z" fill="#008CA9"/>
<path d="M19.8032 18.8593V24.4333L12.3135 27.3209V14.9385L16.5191 13.3076C17.1446 14.6257 17.9378 16.2287 18.904 18.1053L18.9263 18.1556L18.9598 18.2003C19.1609 18.513 19.4569 18.7476 19.8032 18.8593Z" fill="#008CA9"/>
<path d="M29.4043 15.7595V26.941C29.4043 27.1253 29.3094 27.2929 29.1586 27.399C29.0636 27.466 28.9575 27.4995 28.8458 27.4995C28.7732 27.4995 28.7062 27.4828 28.6392 27.4605L20.9204 24.4445V18.8593C21.2779 18.742 21.585 18.4962 21.7861 18.1667L21.775 18.1611C22.0319 17.6752 23.1713 15.4858 24.1878 13.3467L29.0469 15.2345C29.2591 15.3183 29.4043 15.5249 29.4043 15.7595Z" fill="#008CA9"/>
<path d="M20.3616 4.5C17.9097 4.5 15.9214 6.49388 15.9214 8.9402C15.9214 9.85059 19.898 17.5973 19.898 17.5973C19.9986 17.7537 20.1717 17.843 20.3616 17.843H20.3672C20.5571 17.843 20.7358 17.7425 20.8308 17.5861C20.8475 17.5637 24.7963 9.85618 24.7963 8.9402C24.7963 6.49388 22.8079 4.5 20.3616 4.5ZM20.3616 11.2804C19.2558 11.2804 18.3566 10.3812 18.3566 9.28093C18.3566 8.17503 19.2558 7.27583 20.3616 7.27583C21.4675 7.27583 22.3667 8.17503 22.3667 9.28093C22.3667 10.3812 21.4675 11.2804 20.3616 11.2804Z" fill="#F1C34E"/>
</svg>
