<svg xmlns="http://www.w3.org/2000/svg" width="2500" height="583" viewBox="15.947 11.391 733.178 170.964"><path d="M160.52 155.089c0 11.523-9.618 20.868-16.872 20.868H61.741L164.77 11.39H27.01v27.265h7.08c0-11.523 7.458-20.862 14.712-20.862h70.776L15.947 182.354h149.438l.006-27.265h-4.871M280.589 177.011c9.996 0 19.714-4.138 17.53-7.973l-19.156-37.994H211.57l-17.566 38.1c-1.85 4.275 5.864 7.867 13.093 7.867v5.343h-38.882v-5.343c9.99 0 17.021-4.38 18.305-7.837l73.04-157.783 79.712 157.647c2.55 4.145 10.021 7.973 22.27 7.973l-.019 5.343H280.59v-5.343zm-66.09-52.129l29.157-63.987 32.552 63.987h-61.71M370.83 18c11.858 0 21.637 3.052 21.637 6.75 0 29.32-.062 144.151 0 144.151 0 3.916-9.661 8.29-21.513 8.29l-.019 5.163h79.234v-4.815c-11.765 0-21.303-4.704-21.303-8.619V16.541h22.841c22.004 0 39.825 18.274 39.825 39.018 0 20.743-17.84 37.56-39.843 37.56h-15.817s53.563 81.088 53.637 81.088c2.11 3.071 3.158 8.147 3.158 8.147h57.739v-4.815c-11.107 0-16.928-4.617-20.142-8.638l-51.57-67.27c24.745-1.631 43.913-21.655 43.913-45.396 0-24.808-21.308-44.844-47.624-44.844H370.83v6.608M668.173 177.191c9.996 0 19.714-4.318 17.523-8.153l-19.149-37.994h-67.394l-17.566 38.1c-1.85 4.275 5.857 8.395 13.086 8.395v4.815h-38.875v-5.163c9.99 0 17.02-4.56 18.3-8.017l73.046-157.783 79.71 157.647c2.545 4.145 10.022 8.327 22.27 8.327l-.018 4.99h-80.933v-5.164zm-66.097-52.309l29.164-63.987 32.552 63.987h-61.716"/></svg>